{"title":"The.33.2015.WEBRiP.XViD.AC3.5.1.ReLeNTLesS","uid":12783037,"size":1841486638,"categoryP":"video","categoryS":"movies","magnet":"?xt=urn:btih:dfb69f8e9ae7d1fc2209712f247f687c3fdee5f6&amp;dn=The.33.2015.WEBRiP.XViD.AC3.5.1.ReLeNTLesS&amp;tr=udp%3A%2F%2Ftracker.leechers-paradise.org%3A6969&amp;tr=udp%3A%2F%2Fzer0day.ch%3A1337&amp;tr=udp%3A%2F%2Fopen.demonii.com%3A1337&amp;tr=udp%3A%2F%2Ftracker.coppersurfer.tk%3A6969&amp;tr=udp%3A%2F%2Fexodus.desync.com%3A6969","seeders":0,"leechers":0,"uploader":"TvTeam","files":4,"time":1447829204,"description":"------------------------------------------------------------------------\r\n\r  https://www.torrenting.com\r\n\r\nSign up is OPEN - for time being. Come and have fun.\r\n\r\n------------------------------------------------------------------------P0STER\r\n[img]http://i.imgur.com/X9amkR7.png[/img]\r\n\r\niMDB: http://www.imdb.com/title/tt2006295/\r\n\r\nGeneral\r\nComplete name               : The.33.2015.WEBRiP.XViD.AC3.5.1.ReLeNTLesS.avi\r\nFormat                      : AVI\r\nFormat/Info                 : Audio Video Interleave\r\nFile size                   : 1.70 GiB\r\nDuration                    : 2h 7mn\r\nOverall bit rate            : 1 906 Kbps\r\n\r\nVideo\r\nID                          : 0\r\nFormat                      : MPEG-4 Visual\r\nFormat profile              : Advanced   \r\nFormat settings, BVOP       : 1\r\nFormat settings, QPel       : No\r\nFormat settings, GMC        : No warppoints\r\nFormat settings, Matrix     : Default (H.263)\r\nMuxing mode                 : Packed bitstream\r\nCodec ID                    : XVID\r\nCodec ID/Hint               : XviD\r\nDuration                    : 2h 7mn\r\nBit rate                    : 1 707 Kbps\r\nWidth                       : 720 pixels\r\nHeight                      : 304 pixels\r\nDisplay aspect ratio        : 2.35:1\r\nFrame rate                  : 23.976 fps\r\nColor space                 : YUV\r\nChroma subsampling          : 4:2:0\r\nBit depth                   : 8 bits\r\nScan type                   : Progressive\r\nCompression mode            : Lossy\r\nBits/(Pixel*Frame)          : 0.325\r\nStream size                 : 1.52 GiB (90%)\r\nWriting library             : XviD 1.2.1 (UTC 2008-12-04)\r\n\r\nAudio\r\nID                          : 1\r\nFormat                      : AC-3\r\nFormat/Info                 : Audio Coding 3\r\nMode extension              : CM (complete main)\r\nFormat settings, Endianness : Big\r\nCodec ID                    : 2000\r\nDuration                    : 2h 6mn\r\nBit rate mode               : Constant\r\nBit rate                    : 192 Kbps\r\nChannel(s)                  : 6 channels\r\nChannel positions           : Front: L C R, Side: L R, LFE\r\nSampling rate               : 48.0 KHz\r\nCompression mode            : Lossy\r\nStream size                 : 174 MiB (10%)\r\nAlignment                   : Aligned on interleaves\r\nInterleave, duration        : 64 ms (1.54 video frames)\r\nInterleave, preload duratio : 192 ms\r\nTitle                       : The.33.2015.ReLeNTLesS.audio.5.1.English_new\r\nSample Included             : Yes\r\nSource                      : 1080 WEB-DL \r\n\r\nPL0T\r\nBased on the real-life event, when a gold and copper mine collapses, it traps 33 miners underground for 69 days.\r\n\r\nCAST\r\nDirector: Patricia Riggen\r\nWriters: Mikko Alanne (screenplay), Craig Borten (screenplay)\r\nStars: Antonio Banderas, Rodrigo Santoro, Juliette Binoche\r\n\r\nN0TE\r\nResized, Degrained and sharpened a bit, did audio and muxed.\r\n\r\nSCREENS\r\n[img]http://i.imgur.com/9P98K6J.png[/img]\r\n[img]http://i.imgur.com/Avizhfc.png[/img]\r\n[img]http://i.imgur.com/rxBa7lo.png[/img]\r\n[img]http://i.imgur.com/HbyzKxb.png[/img]\r\n[img]http://i.imgur.com/T9YAGG6.png[/img]\r\n[img]http://i.imgur.com/8yzgJqC.png[/img]\r\n\r\nTRAiLER\r\n\r\nGREETZ\r\n\r\n\r\nHIVE-CM8, Blackjesus, M0RPH, M00SE, MiLLENiUM,\r\n\r\nMANiX, TiTAN, Anonymous, TuX, \r\n\r\nACAB, KingStoner, FooKas, 4PlayHD, \r\n\r\nSoZE, GodFather, Cld.... \r\n\r\nKeep up the good work guyz","torrent":{"xt":"urn:btih:dfb69f8e9ae7d1fc2209712f247f687c3fdee5f6","amp;dn":"The.33.2015.WEBRiP.XViD.AC3.5.1.ReLeNTLesS","amp;tr":["udp%3A%2F%2Ftracker.leechers-paradise.org%3A6969","udp%3A%2F%2Fzer0day.ch%3A1337","udp%3A%2F%2Fopen.demonii.com%3A1337","udp%3A%2F%2Ftracker.coppersurfer.tk%3A6969","udp%3A%2F%2Fexodus.desync.com%3A6969"],"infoHash":"dfb69f8e9ae7d1fc2209712f247f687c3fdee5f6","infoHashBuffer":{"type":"Buffer","data":[223,182,159,142,154,231,209,252,34,9,113,47,36,127,104,124,63,222,229,246]},"announce":[],"urlList":[]}}